<svg id="Layer_1" data-name="Layer 1" xmlns="http://www.w3.org/2000/svg" xmlns:xlink="http://www.w3.org/1999/xlink" viewBox="0 0 194 188.21"><defs><style>.cls-1{fill:url(#linear-gradient);}.cls-2{fill:url(#linear-gradient-2);}.cls-3{fill:url(#linear-gradient-3);}.cls-4{fill:url(#linear-gradient-4);}.cls-5{fill:url(#linear-gradient-5);}.cls-6{fill:url(#linear-gradient-6);}.cls-7{fill:url(#linear-gradient-7);}</style><linearGradient id="linear-gradient" x1="3.83" y1="503.41" x2="3.83" y2="502.41" gradientTransform="matrix(35.36, 0, 0, -47.59, -34.36, 24031.43)" gradientUnits="userSpaceOnUse"><stop offset="0" stop-color="#111871"/><stop offset="0.49" stop-color="#2766a7"/><stop offset="1" stop-color="#2766a7"/></linearGradient><linearGradient id="linear-gradient-2" x1="3.53" y1="503.43" x2="3.53" y2="502.43" gradientTransform="matrix(40.59, 0, 0, -48.15, 0.1, 24315.96)" xlink:href="#linear-gradient"/><linearGradient id="linear-gradient-3" x1="3.75" y1="503.4" x2="3.75" y2="502.4" gradientTransform="matrix(36.65, 0, 0, -47.49, 48.05, 23981.5)" xlink:href="#linear-gradient"/><linearGradient id="linear-gradient-4" x1="4.17" y1="503.35" x2="4.17" y2="502.35" gradientTransform="matrix(30.9, 0, 0, -45.91, 92.15, 23185.24)" xlink:href="#linear-gradient"/><linearGradient id="linear-gradient-5" x1="3.73" y1="503.42" x2="3.73" y2="502.42" gradientTransform="matrix(36.89, 0, 0, -47.95, 121.22, 24217.83)" xlink:href="#linear-gradient"/><linearGradient id="linear-gradient-6" x1="2.33" y1="504.38" x2="2.33" y2="503.38" gradientTransform="matrix(99.83, 0, 0, -121.94, -75.53, 61639.05)" gradientUnits="userSpaceOnUse"><stop offset="0" stop-color="#942a9f"/><stop offset="1" stop-color="#4a1550"/></linearGradient><linearGradient id="linear-gradient-7" x1="3.19" y1="504.43" x2="3.19" y2="503.43" gradientTransform="matrix(48.86, 0, 0, -133.18, 74.03, 67309.56)" xlink:href="#linear-gradient-6"/></defs><g id="Group_301" data-name="Group 301"><g id="Group_288" data-name="Group 288"><path id="Path_87" data-name="Path 87" class="cls-1" d="M108.3,95.07c1.15.52,2.34,1.12,3.55,1.79a15,15,0,0,1,3.3,2.46,11.91,11.91,0,0,1,3.56,8.34,14.79,14.79,0,0,1-1.29,7,14.43,14.43,0,0,1-4.12,5.15,19.49,19.49,0,0,1-6.35,3.24,30.62,30.62,0,0,1-8,1.32,27.14,27.14,0,0,1-4-.2,33.45,33.45,0,0,1-4.09-.76,38.51,38.51,0,0,1-3.92-1.2c-1.26-.46-2.46-1-3.58-1.48l4.25-12c.56.22,1.24.51,2,.87s1.66.69,2.52,1,1.83.56,2.8.78a10.91,10.91,0,0,0,2.85.28,10.23,10.23,0,0,0,3.5-.73,2,2,0,0,0,1.37-2.07,1.68,1.68,0,0,0-1-1.45,17.63,17.63,0,0,0-2.21-1l-2.21-.62a25.77,25.77,0,0,1-2.94-1.06,27,27,0,0,1-3.16-1.63,14.31,14.31,0,0,1-2.91-2.3,11.74,11.74,0,0,1-2.18-3.1,9.69,9.69,0,0,1-.93-4.06,14.93,14.93,0,0,1,1.35-7,15.59,15.59,0,0,1,4-5.21,18,18,0,0,1,5.88-3.3,25.72,25.72,0,0,1,7.16-1.32,34.87,34.87,0,0,1,7,.37A28.68,28.68,0,0,1,117,79l-3.31,12.94c-1.49-.63-2.85-1.17-4.08-1.6a22.15,22.15,0,0,0-4.32-1,14.08,14.08,0,0,0-1.95-.11,10.73,10.73,0,0,0-2.33.25,5.72,5.72,0,0,0-2,.81,1.91,1.91,0,0,0-.9,1.57.76.76,0,0,0,.42.7,3.59,3.59,0,0,0,1,.39c.4.1.8.17,1.2.23l1,.14c1.08.22,2.24.48,3.47.78A16.27,16.27,0,0,1,108.3,95.07Z" transform="translate(-83.38 -76.82)"/><path id="Path_88" data-name="Path 88" class="cls-2" d="M162.81,78.94q.39,8.57.55,13.78c.11,3.47.19,6.13.23,8s.07,3.09.07,3.69v.9a29.36,29.36,0,0,1-.59,6.55,15.71,15.71,0,0,1-2.37,5.68,15.14,15.14,0,0,1-4.68,4.37,20.4,20.4,0,0,1-7.38,2.55,34.47,34.47,0,0,1-11.64.22,18.05,18.05,0,0,1-8-3.36,14.12,14.12,0,0,1-4.59-6.24,21.77,21.77,0,0,1-1.3-8.31v-.56c0-.38,0-1.16.07-2.35s.09-2.88.13-5,.13-5.06.26-8.68.28-8,.45-13.22l18.59,2.8L140.9,106a6,6,0,0,0,0,2.57,5.76,5.76,0,0,0,.61,1.62,4.63,4.63,0,0,0,.39.56,2.63,2.63,0,0,0,1.5.73c.57.08,1.2-.37,1.89-1.34a4.8,4.8,0,0,0,.39-.7,10,10,0,0,0,.65-2.27,16,16,0,0,0,.19-4l-1.36-21.5Z" transform="translate(-83.38 -76.82)"/><path id="Path_89" data-name="Path 89" class="cls-3" d="M195.56,77.85a11.37,11.37,0,0,1,7.81,8.73,17.33,17.33,0,0,1,.11,6.5,25,25,0,0,1-2.24,6.83,25.66,25.66,0,0,1-4.45,6.38,28.12,28.12,0,0,1-6.55,5.09,27.29,27.29,0,0,1-8.48,3.06l-.23,10.07L168,123.11l-.9-43.72q10.64-1.23,20.49-2.18A18.27,18.27,0,0,1,195.56,77.85Zm-7.09,16.77s0-.24.06-.62a3.59,3.59,0,0,0-.17-1.34,2.44,2.44,0,0,0-1-1.32,3.91,3.91,0,0,0-2.32-.5,13.29,13.29,0,0,0-4.29,1.09l-.56,9a12.38,12.38,0,0,0,3.5-1.29,12.2,12.2,0,0,0,2.49-1.79A9.74,9.74,0,0,0,187.8,96,4.48,4.48,0,0,0,188.47,94.62Z" transform="translate(-83.38 -76.82)"/><path id="Path_90" data-name="Path 90" class="cls-4" d="M205.44,79.84l30.9-2.3L234.6,91.71l-14,.61L220.49,95l10.19-.73-1.17,9.8-9.35.73-.11,3.08,16-1.51-.28,15.45-29.95,1.62Z" transform="translate(-83.38 -76.82)"/><path id="Path_91" data-name="Path 91" class="cls-5" d="M277.38,115.16l-8.67,9.8-13.6-10-.17,9.58-13.55-1.4-.9-43.73q10.63-1.23,20.49-2.18a19,19,0,0,1,8.76.78,11.31,11.31,0,0,1,5.32,3.89,11.46,11.46,0,0,1,2.07,5.94,17.08,17.08,0,0,1-1,6.94,23.35,23.35,0,0,1-3.89,6.91,25.8,25.8,0,0,1-6.58,5.83ZM254.26,91.93l-.56,9a12.62,12.62,0,0,0,6-3.08A9.23,9.23,0,0,0,261.23,96a4.93,4.93,0,0,0,.65-1.37s0-.24.05-.62a3.81,3.81,0,0,0-.14-1.34,2.27,2.27,0,0,0-1-1.32,4,4,0,0,0-2.32-.5A13.12,13.12,0,0,0,254.26,91.93Z" transform="translate(-83.38 -76.82)"/></g><g id="Group_294" data-name="Group 294"><g id="Group_292" data-name="Group 292"><g id="Group_291" data-name="Group 291"><path id="Path_98" data-name="Path 98" class="cls-6" d="M204.69,147c.56,14.28.95,30.42,1.19,39.1s.4,7.57.49,12.24.14,7.75.14,9.24v2.24a85.59,85.59,0,0,1-1.26,16.37,42.94,42.94,0,0,1-5.11,14.21,35,35,0,0,1-10.08,10.91,39.86,39.86,0,0,1-15.88,6.37c-9.71,1.87-30.5,2.05-37.5.56a36.42,36.42,0,0,1-17.28-8.4,35.37,35.37,0,0,1-9.87-15.6,61.76,61.76,0,0,1-2.8-20.78V212q0-1.41.14-5.88t.28-12.6c.09-5.41.28-4.87.56-13.92s2.16-29.39,2.54-42.36l40,7-5.2,67.33a17.43,17.43,0,0,0,.07,6.44,16.1,16.1,0,0,0,1.33,4.06c.47.84,2.84,4.3,8.57,5,7.95.91,10.5-2.67,12-5.1a11.71,11.71,0,0,0,.84-1.75,28.48,28.48,0,0,0,1.4-5.67,47.16,47.16,0,0,0,.42-9.93L166.76,154Z" transform="translate(-83.38 -76.82)"/></g></g><g id="Group_293" data-name="Group 293"><path id="Path_99" data-name="Path 99" class="cls-7" d="M219.91,263.37a27,27,0,0,1-6.84-3.9,23.08,23.08,0,0,1-4.93-5.27,17.49,17.49,0,0,1-2.58-6,11,11,0,0,1,.31-6,10.82,10.82,0,0,1,3.08-4.93,13.54,13.54,0,0,1,5.35-3,19.52,19.52,0,0,1,6.84-.75,25,25,0,0,1,14.35,5.47,23,23,0,0,1,4.92,5.27,16.51,16.51,0,0,1,2.53,6,12.4,12.4,0,0,1-.25,6,10.35,10.35,0,0,1-3.08,4.86,14.92,14.92,0,0,1-5.35,3,19.59,19.59,0,0,1-6.84.89A22.78,22.78,0,0,1,219.91,263.37Zm23.64-32a28.5,28.5,0,0,0-7.33-4,32.48,32.48,0,0,0-8.8-2,32,32,0,0,0-8.69.35,26.69,26.69,0,0,0-7.57,2.53l6.53-94.7,36.45-1.65Z" transform="translate(-83.38 -76.82)"/></g></g></g></svg>