<svg id="Layer_1" data-name="Layer 1" xmlns="http://www.w3.org/2000/svg" xmlns:xlink="http://www.w3.org/1999/xlink" viewBox="0 0 138 32.56"><defs><style>.cls-1{fill:url(#linear-gradient);}.cls-2{fill:url(#linear-gradient-2);}.cls-3{fill:url(#linear-gradient-3);}.cls-4{fill:url(#linear-gradient-4);}.cls-5{fill:url(#linear-gradient-5);}.cls-6{fill:url(#linear-gradient-6);}.cls-7{fill:url(#linear-gradient-7);}</style><linearGradient id="linear-gradient" x1="3.29" y1="503.92" x2="3.29" y2="502.92" gradientTransform="matrix(18.04, 0, 0, -25.2, -17.04, 12732.45)" gradientUnits="userSpaceOnUse"><stop offset="0" stop-color="#111871"/><stop offset="0.49" stop-color="#2766a7"/><stop offset="1" stop-color="#2766a7"/></linearGradient><linearGradient id="linear-gradient-2" x1="3.06" y1="503.93" x2="3.06" y2="502.93" gradientTransform="matrix(20.72, 0, 0, -25.51, 0.53, 12886.86)" xlink:href="#linear-gradient"/><linearGradient id="linear-gradient-3" x1="3.23" y1="503.92" x2="3.23" y2="502.92" gradientTransform="matrix(18.7, 0, 0, -25.15, 25.02, 12707.25)" xlink:href="#linear-gradient"/><linearGradient id="linear-gradient-4" x1="3.55" y1="503.88" x2="3.55" y2="502.88" gradientTransform="matrix(15.77, 0, 0, -24.31, 47.52, 12283.94)" xlink:href="#linear-gradient"/><linearGradient id="linear-gradient-5" x1="3.22" y1="503.93" x2="3.22" y2="502.93" gradientTransform="matrix(18.83, 0, 0, -25.4, 62.35, 12832.2)" xlink:href="#linear-gradient"/><linearGradient id="linear-gradient-6" x1="2.88" y1="504.09" x2="2.88" y2="503.09" gradientTransform="matrix(23.52, 0, 0, -29.8, 80.75, 15052.48)" gradientUnits="userSpaceOnUse"><stop offset="0" stop-color="#942a9f"/><stop offset="1" stop-color="#4a1550"/></linearGradient><linearGradient id="linear-gradient-7" x1="4.31" y1="504.16" x2="4.31" y2="503.16" gradientTransform="matrix(11.51, 0, 0, -32.56, 115.97, 16443.02)" xlink:href="#linear-gradient-6"/></defs><g id="Group_312" data-name="Group 312"><g id="Group_288" data-name="Group 288"><path id="Path_87" data-name="Path 87" class="cls-1" d="M46.06,42.85c.59.28,1.19.6,1.81.95a8.26,8.26,0,0,1,1.69,1.3A6.57,6.57,0,0,1,50.82,47a6.65,6.65,0,0,1,.55,2.56,8,8,0,0,1-.65,3.72A7.59,7.59,0,0,1,48.62,56a9.77,9.77,0,0,1-3.25,1.72,15,15,0,0,1-4,.7,12.87,12.87,0,0,1-2.06-.1,16.74,16.74,0,0,1-2.09-.4,18.56,18.56,0,0,1-2-.64c-.64-.24-1.25-.51-1.82-.78l2.17-6.35c.28.12.63.27,1,.46a11.05,11.05,0,0,0,1.28.52c.46.16.93.3,1.43.42a5.53,5.53,0,0,0,1.46.14,4.74,4.74,0,0,0,1.78-.38,1.07,1.07,0,0,0,.7-1.1.89.89,0,0,0-.5-.77,10.67,10.67,0,0,0-1.13-.54l-1.13-.32a13.53,13.53,0,0,1-1.5-.56,14.65,14.65,0,0,1-1.61-.86,7.57,7.57,0,0,1-1.49-1.22,6.38,6.38,0,0,1-1.11-1.65,5.11,5.11,0,0,1-.47-2.15A8,8,0,0,1,37,35.67a8.9,8.9,0,0,1,3-1.75,12.36,12.36,0,0,1,3.66-.7,17.08,17.08,0,0,1,3.57.19,14.77,14.77,0,0,1,3.32.93l-1.69,6.85c-.76-.33-1.46-.61-2.09-.84a11,11,0,0,0-2.2-.52,5.54,5.54,0,0,0-1-.06,5.2,5.2,0,0,0-1.18.13,3.17,3.17,0,0,0-1,.43,1,1,0,0,0-.45.83.39.39,0,0,0,.21.37,1.62,1.62,0,0,0,.51.21c.21,0,.41.09.62.12l.51.08c.56.11,1.15.25,1.77.41A9,9,0,0,1,46.06,42.85Z" transform="translate(-33.35 -28.2)"/><path id="Path_88" data-name="Path 88" class="cls-2" d="M73.88,34.32c.14,3,.23,5.45.29,7.29s.09,3.25.11,4.24,0,1.64,0,2v.47a15.51,15.51,0,0,1-.3,3.47,8.29,8.29,0,0,1-1.21,3,7.75,7.75,0,0,1-2.39,2.31,9.94,9.94,0,0,1-3.76,1.35,16.94,16.94,0,0,1-5.94.12,9,9,0,0,1-4.1-1.78,7.45,7.45,0,0,1-2.34-3.3,11.8,11.8,0,0,1-.66-4.4v-.3c0-.2,0-.62,0-1.25s0-1.52.07-2.67.06-2.68.13-4.6.14-4.25.23-7l9.49,1.48L62.7,48.66a3.28,3.28,0,0,0,0,1.36,3.17,3.17,0,0,0,.32.86,2.23,2.23,0,0,0,.2.3,1.3,1.3,0,0,0,.76.39c.29,0,.61-.2,1-.71a1.9,1.9,0,0,0,.2-.37,5.65,5.65,0,0,0,.34-1.2,9.31,9.31,0,0,0,.1-2.11l-.7-11.38Z" transform="translate(-33.35 -28.2)"/><path id="Path_89" data-name="Path 89" class="cls-3" d="M90.6,33.74a6,6,0,0,1,2.65,1.79,6.38,6.38,0,0,1,1.33,2.83,9.47,9.47,0,0,1,.06,3.44,13.85,13.85,0,0,1-3.41,7,14.55,14.55,0,0,1-3.35,2.7,13.66,13.66,0,0,1-4.33,1.62l-.11,5.33-6.92-.74-.45-23.15c3.62-.44,7.1-.82,10.46-1.16A8.93,8.93,0,0,1,90.6,33.74ZM87,42.62s0-.13,0-.33a1.9,1.9,0,0,0-.08-.71,1.29,1.29,0,0,0-.49-.7,2,2,0,0,0-1.19-.27,6.65,6.65,0,0,0-2.18.58l-.29,4.75a6.39,6.39,0,0,0,1.79-.69,6.19,6.19,0,0,0,1.27-1,5.3,5.3,0,0,0,.8-1,2.38,2.38,0,0,0,.34-.72Z" transform="translate(-33.35 -28.2)"/><path id="Path_90" data-name="Path 90" class="cls-4" d="M95.64,34.79l15.77-1.22-.88,7.5-7.18.33,0,1.42,5.2-.38-.6,5.19-4.77.38-.06,1.63,8.18-.8L111.12,57l-15.28.86Z" transform="translate(-33.35 -28.2)"/><path id="Path_91" data-name="Path 91" class="cls-5" d="M132.36,53.5l-4.43,5.19L121,53.38l-.09,5.07L114,57.71l-.46-23.16c3.62-.43,7.1-.82,10.46-1.15a9.31,9.31,0,0,1,4.47.41,5.77,5.77,0,0,1,2.71,2.06A6.21,6.21,0,0,1,132.23,39a9.38,9.38,0,0,1-.5,3.68,12.76,12.76,0,0,1-2,3.66,13.31,13.31,0,0,1-3.35,3.09Zm-11.8-12.31-.29,4.75a6.68,6.68,0,0,0,1.79-.68,7,7,0,0,0,1.27-.95,4.93,4.93,0,0,0,.79-1,2.59,2.59,0,0,0,.32-.72s0-.13,0-.33a2.12,2.12,0,0,0-.07-.71,1.19,1.19,0,0,0-.48-.7,2,2,0,0,0-1.19-.27,6.78,6.78,0,0,0-2.17.58Z" transform="translate(-33.35 -28.2)"/></g><g id="Group_294" data-name="Group 294"><g id="Group_292" data-name="Group 292"><g id="Group_291" data-name="Group 291"><path id="Path_98" data-name="Path 98" class="cls-6" d="M159.69,31.89c.14,3.49.23,7.43.28,9.55s.1,1.86.12,3,0,1.89,0,2.25v.55a20.62,20.62,0,0,1-.3,4,10.45,10.45,0,0,1-1.2,3.47,8.43,8.43,0,0,1-2.37,2.67,9.16,9.16,0,0,1-3.74,1.56,32.25,32.25,0,0,1-8.83.14A8.48,8.48,0,0,1,139.6,57a8.68,8.68,0,0,1-2.32-3.81,15.61,15.61,0,0,1-.66-5.08v-.34q0-.34,0-1.44c0-.73,0-1.76.07-3.08s.07-1.19.13-3.4.51-7.19.6-10.36l9.43,1.72-1.22,16.46a4.36,4.36,0,0,0,0,1.57,4.24,4.24,0,0,0,.32,1,2.55,2.55,0,0,0,2,1.21,2.46,2.46,0,0,0,2.83-1.24,3.36,3.36,0,0,0,.2-.43,6.55,6.55,0,0,0,.33-1.39,11.52,11.52,0,0,0,.1-2.42l-.69-12.38Z" transform="translate(-33.35 -28.2)"/></g></g><g id="Group_293" data-name="Group 293"><path id="Path_99" data-name="Path 99" class="cls-7" d="M163.27,60.35a6.42,6.42,0,0,1-1.61-1,5.66,5.66,0,0,1-1.16-1.28,4.59,4.59,0,0,1-.61-1.48,2.83,2.83,0,0,1,.08-1.47,2.69,2.69,0,0,1,.72-1.2,3.14,3.14,0,0,1,1.26-.73,4.42,4.42,0,0,1,1.61-.19,5.9,5.9,0,0,1,1.77.39,5.8,5.8,0,0,1,1.61,1,5.27,5.27,0,0,1,1.16,1.29,4,4,0,0,1,.6,1.47,3,3,0,0,1-.06,1.47,2.6,2.6,0,0,1-.72,1.19,3.69,3.69,0,0,1-1.27.74,4.36,4.36,0,0,1-1.61.21A5.23,5.23,0,0,1,163.27,60.35Zm5.57-7.83a6.69,6.69,0,0,0-1.72-1,7.87,7.87,0,0,0-4.12-.4,6,6,0,0,0-1.78.62l1.53-23.15,8.59-.4Z" transform="translate(-33.35 -28.2)"/></g></g></g></svg>